<?xml version="1.0" encoding="iso-8859-1"?>
<!-- Generator: Adobe Illustrator 21.0.0, SVG Export Plug-In . SVG Version: 6.00 Build 0)  -->
<svg xmlns="http://www.w3.org/2000/svg" xmlns:xlink="http://www.w3.org/1999/xlink" version="1.1" id="Capa_1" x="0px" y="0px" viewBox="0 0 512 512" style="enable-background:new 0 0 512 512;" xml:space="preserve" width="512" height="512">
<g>
	<circle style="fill:#FFE63F;" cx="256" cy="256" r="256"/>
	<path style="fill:#FFCE00;" d="M504.33,318.383L255.996,69.914l-96.849,332.274l109.498,109.499   C382.893,506.128,477.461,425.679,504.33,318.383z"/>
	<g>
		<path style="fill:#00E1DE;" d="M393.749,304.333c0,75.956-61.797,137.753-137.753,137.753s-137.745-61.797-137.745-137.753    c0-31.313,21.99-78.864,65.368-141.331c31.662-45.595,63.782-83.082,64.11-83.46l8.268-9.628l8.275,9.628    c0.32,0.378,32.44,37.865,64.102,83.46C371.751,225.469,393.749,273.02,393.749,304.333z"/>
		<path style="fill:#00B3B8;" d="M393.749,304.333c0,75.956-61.797,137.753-137.753,137.753V69.914l8.275,9.628    c0.32,0.378,32.44,37.865,64.102,83.46C371.751,225.469,393.749,273.02,393.749,304.333z"/>
		<path style="fill:#9BFCFF;" d="M294.708,398.785l-7.592-20.452c54.883-20.373,49.566-73.998,49.313-76.27l21.667-2.544    c0.09,0.75,2.115,18.602-4.624,39.593C347.177,358.72,331.872,384.99,294.708,398.785z"/>
	</g>
</g>
</svg>