<svg height="511pt" viewBox="0 0 511 511.99998" width="511pt" xmlns="http://www.w3.org/2000/svg"><path d="m507.953125 486.503906-481.957031-481.957031c-9.296875-9.601563-25.496094-3-25.496094 10.496094v74.996093c0 5.097657 15 9.898438 15 14.996094 0 5.101563-15 9.902344-15 15v59.996094c0 5.097656 15 9.898438 15 14.996094 0 5.101562-15 9.898437-15 15v59.996094c0 6.296874 15 12.296874 15 18.597656 0 3.898437-15 7.5-15 11.398437v59.996094c0 5.097656 15 9.898437 15 14.996094 0 5.101562-15 9.898437-15 15v106.988281c0 4.199219 1.800781 7.800781 4.5 10.5s6.300781 4.5 10.5 4.5h76.992188c4.5 0 9.296874-15 13.796874-15 5.402344 0 10.800782 15 16.199219 15h29.996094c4.5 0 9.300781-15 13.800781-15 5.398438 0 10.800782 15 16.199219 15h29.996094c3.898437 0 7.5-15 11.398437-15 6.300782 0 12.300782 15 18.597656 15h30c5.097657 0 9.898438-15 14.996094-15 5.101563 0 9.902344 15 15 15h29.996094c6.300781 0 12.601562-15 19.199219-15 3.601562 0 7.199219 15 10.800781 15h29.996094c3.597656 0 7.5-15 11.398437-15 6 0 12.300781 15 18.597657 15h74.996093c13.195313 0 20.097657-16.199219 10.496094-25.496094zm-227.679687-66.496094h-173.082032c-4.199218 0-7.800781-1.800781-10.5-4.199218-2.398437-3-4.199218-6.597656-4.199218-10.800782v-172.78125c0-13.199218 16.199218-19.800781 25.496093-10.5 2.101563 2.097657 44.398438 44.394532 86.394531 86.390626 41.09375 40.796874 82.191407 81.894531 86.390626 86.394531 9.300781 9.296875 2.699218 25.496093-10.5 25.496093zm0 0" fill="#ffd400"/><path d="m497.457031 512h-74.996093c-6.296876 0-12.597657-15-18.597657-15-3.898437 0-7.800781 15-11.398437 15h-29.996094c-3.601562 0-7.199219-15-10.800781-15-6.597657 0-12.898438 15-19.199219 15h-29.996094c-5.097656 0-9.898437-15-15-15-5.097656 0-9.898437 15-14.996094 15h-30c-6.296874 0-12.296874-15-18.597656-15-3.898437 0-7.5 15-11.398437 15h-29.996094c-5.398437 0-10.800781-15-16.199219-15-4.5 0-9.300781 15-13.800781 15h-29.996094c-5.398437 0-10.796875-15-16.199219-15-4.5 0-9.296874 15-13.796874 15h-76.992188c-4.199219 0-7.800781-1.800781-10.5-4.5l91.691406-91.691406c2.699219 2.398437 6.300782 4.199218 10.5 4.199218h173.082032c13.199218 0 19.800781-16.199218 10.5-25.496093-4.199219-4.5-45.296876-45.597657-86.390626-86.394531l62.59375-62.59375 240.976563 240.980468c9.601563 9.296875 2.699219 25.496094-10.496094 25.496094zm0 0" fill="#fdbf00"/><g fill="#e27726"><path d="m107.492188 450.003906c-8.292969 0-15 6.710938-15 15v46.996094h29.996093v-46.996094c0-8.289062-6.707031-15-14.996093-15zm0 0"/><path d="m167.484375 450.003906c-8.289063 0-15 6.710938-15 15v46.996094h30v-46.996094c0-8.289062-6.710937-15-15-15zm0 0"/><path d="m227.480469 450.003906c-8.292969 0-15 6.710938-15 15v46.996094h29.996093v-46.996094c0-8.289062-6.707031-15-14.996093-15zm0 0"/><path d="m287.472656 450.003906c-8.289062 0-14.996094 6.710938-14.996094 15v46.996094h29.996094v-46.996094c0-8.289062-6.707031-15-15-15zm0 0"/><path d="m347.46875 450.003906c-8.289062 0-15 6.710938-15 15v46.996094h30v-46.996094c0-8.289062-6.710938-15-15-15zm0 0"/><path d="m407.464844 450.003906c-8.292969 0-15 6.710938-15 15v46.996094h29.996094v-46.996094c0-8.289062-6.707032-15-14.996094-15zm0 0"/></g><path d="m62.496094 195.027344c0-8.289063-6.710938-14.996094-15-14.996094h-46.996094v29.996094h46.996094c8.289062 0 15-6.707032 15-15zm0 0" fill="#e68a44"/><path d="m62.496094 105.035156c0-8.289062-6.710938-14.996094-15-14.996094h-46.996094v29.996094h46.996094c8.289062 0 15-6.707031 15-15zm0 0" fill="#e68a44"/><path d="m62.496094 285.019531c0-8.289062-6.710938-14.996093-15-14.996093h-46.996094v29.996093h46.996094c8.289062 0 15-6.707031 15-15zm0 0" fill="#e68a44"/><path d="m62.496094 375.011719c0-8.289063-6.710938-14.996094-15-14.996094h-46.996094v29.996094h46.996094c8.289062 0 15-6.710938 15-15zm0 0" fill="#e68a44"/><path d="m221.683594 108.703125 169.6875 169.6875 45.394531-2.96875 15.269531-15.269531 2.972656-45.394532-169.691406-169.691406h-42.421875l-21.210937 21.210938zm0 0" fill="#cb671b"/><path d="m221.683594 108.703125 169.6875 169.6875 45.394531-2.96875 7.632813-7.636719-212.109376-212.113281-10.605468 10.605469zm0 0" fill="#9e5015"/><path d="m189.863281 76.882812 31.820313 31.820313 63.632812-63.636719-31.816406-31.816406c-17.605469-17.605469-46.027344-17.605469-63.636719 0-17.605469 17.605469-17.605469 46.027344 0 63.632812zm0 0" fill="#4a696f"/><path d="m189.863281 76.882812 31.820313 31.820313 31.816406-31.820313-63.636719-63.632812c-17.605469 17.605469-17.605469 46.027344 0 63.632812zm0 0" fill="#384949"/><path d="m391.371094 278.390625 99.480468 55.785156c5.515626 2.972657 12.515626 1.910157 17.183594-2.753906 4.664063-4.667969 5.726563-11.667969 2.757813-17.183594l-55.785157-99.480469zm0 0" fill="#f8e5ca"/><path d="m423.1875 246.574219-31.816406 31.816406 99.480468 55.785156c5.515626 2.972657 12.515626 1.910157 17.183594-2.753906zm0 0" fill="#f1c992"/></svg>