<?xml version="1.0" encoding="iso-8859-1"?>
<!-- Generator: Adobe Illustrator 19.0.0, SVG Export Plug-In . SVG Version: 6.00 Build 0)  -->
<svg version="1.1" id="Layer_1" xmlns="http://www.w3.org/2000/svg" xmlns:xlink="http://www.w3.org/1999/xlink" x="0px" y="0px"
	 viewBox="0 0 504.124 504.124" style="enable-background:new 0 0 504.124 504.124;" xml:space="preserve">
<path style="fill:#2EA9D3;" d="M252.062,0.001c139.028,0,252.062,113.034,252.062,252.062S391.089,504.123,252.062,504.123
	S0,391.484,0,252.063S113.034,0.001,252.062,0.001z"/>
<path style="fill:#EFC75E;" d="M486.794,159.902c-27.569-70.105-85.465-124.85-157.539-148.087
	c-6.695,14.572-10.24,30.326-10.24,47.262c0,63.015,51.2,114.215,114.215,114.215C452.529,173.293,470.646,168.566,486.794,159.902z
	"/>
<path style="fill:#47BFE8;" d="M504.123,256h-0.788c-32.295,0-60.652,15.36-78.375,39.385c-1.575,1.969,19.298,22.843,17.723,44.505
	c-14.572-25.994-42.535-43.717-74.437-43.717c-47.262,0-85.465,38.597-85.465,85.858c0,12.209,2.757,24.025,7.089,34.658
	c-21.662,7.089-37.415,27.963-37.415,51.988c0,13.391,4.726,25.6,12.603,35.052C396.603,497.429,501.76,389.12,504.123,256z"/>
<path style="fill:#FFFFFF;" d="M267.422,503.729c-3.545-37.022-29.932-67.742-64.985-76.406c-2.363-0.788-5.12-1.182-7.877-1.575
	c-2.363-0.394-5.12-0.788-7.877-0.788h-5.908c0,0-23.237,0.394-40.172,14.572c0,0,9.058-18.905,31.114-26.388l-3.151-3.545
	c-4.332-4.726-9.058-9.058-14.572-12.997c-4.332-3.151-9.058-6.302-13.785-9.058c-7.089-3.938-14.572-6.695-22.055-9.058
	l-5.908-1.575l-5.908-1.182c-5.908-1.182-12.209-1.575-18.511-1.575c-7.483,0-14.572,0.788-21.268,1.969
	c-3.545,0.788-7.483,1.969-11.422,3.151c-5.514,1.969-11.028,4.332-16.542,6.695c44.898,71.286,123.668,118.154,213.465,118.154
	C257.182,504.123,262.302,504.123,267.422,503.729L267.422,503.729z"/>
</svg>